<?xml version="1.0" encoding="UTF-8"?><svg xmlns="http://www.w3.org/2000/svg" xmlns:xlink="http://www.w3.org/1999/xlink" clip-rule="evenodd" stroke-miterlimit="4.00" viewBox="0 0 960 540"><desc>SVG generated by Keynote</desc><defs></defs><g transform="matrix(1.00, 0.00, -0.00, -1.00, 0.0, 540.0)"><path d="M 0.0 0.0 L 960.0 0.0 L 960.0 540.0 L 0.0 540.0 Z M 0.0 0.0 " fill="#FFFFFF"></path><text xml:space="preserve" font-family="Helvetica-Light" font-size="44.0" fill="#7F7F7F" transform="matrix(1.00, 0.00, -0.00, -1.00, 46.0, 443.0)"> </text><text xml:space="preserve" font-family="Helvetica-Light" font-size="44.0" fill="#7F7F7F" transform="matrix(1.00, 0.00, -0.00, -1.00, 58.2, 443.0)">w</text><text xml:space="preserve" font-family="Helvetica-Light" font-size="44.0" fill="#7F7F7F" transform="matrix(1.00, 0.00, -0.00, -1.00, 90.0, 443.0)">e</text><text xml:space="preserve" font-family="Helvetica-Light" font-size="44.0" fill="#7F7F7F" transform="matrix(1.00, 0.00, -0.00, -1.00, 114.5, 443.0)">l</text><text xml:space="preserve" font-family="Helvetica-Light" font-size="44.0" fill="#7F7F7F" transform="matrix(1.00, 0.00, -0.00, -1.00, 124.2, 443.0)">c</text><text xml:space="preserve" font-family="Helvetica-Light" font-size="44.0" fill="#7F7F7F" transform="matrix(1.00, 0.00, -0.00, -1.00, 148.7, 443.0)">o</text><text xml:space="preserve" font-family="Helvetica-Light" font-size="44.0" fill="#7F7F7F" transform="matrix(1.00, 0.00, -0.00, -1.00, 173.2, 443.0)">m</text><text xml:space="preserve" font-family="Helvetica-Light" font-size="44.0" fill="#7F7F7F" transform="matrix(1.00, 0.00, -0.00, -1.00, 209.8, 443.0)">e</text><path d="M 261.7 454.7 L 960.0 454.7 L 960.0 458.3 L 261.7 458.3 Z M 261.7 454.7 " fill="#00E774"></path><path d="M 0.0 454.6 L 42.5 454.6 L 42.5 458.3 L 0.0 458.3 Z M 0.0 454.6 " fill="#00E774"></path><text xml:space="preserve" font-family="TrebuchetMS" font-size="44.0" fill="#00E774" transform="matrix(1.00, 0.00, -0.00, -1.00, 61.0, 398.0)">t</text><text xml:space="preserve" font-family="TrebuchetMS" font-size="44.0" fill="#00E774" transform="matrix(1.00, 0.00, -0.00, -1.00, 78.5, 398.0)">o</text><text xml:space="preserve" font-family="TrebuchetMS" font-size="44.0" fill="#00E774" transform="matrix(1.00, 0.00, -0.00, -1.00, 102.1, 398.0)"> </text><text xml:space="preserve" font-family="TrebuchetMS" font-size="44.0" fill="#00E774" transform="matrix(1.00, 0.00, -0.00, -1.00, 115.3, 398.0)">“</text><text xml:space="preserve" font-family="TrebuchetMS" font-size="44.0" fill="#00E774" transform="matrix(1.00, 0.00, -0.00, -1.00, 138.4, 398.0)">F</text><text xml:space="preserve" font-family="TrebuchetMS" font-size="44.0" fill="#00E774" transform="matrix(1.00, 0.00, -0.00, -1.00, 156.8, 398.0)">A</text><text xml:space="preserve" font-family="TrebuchetMS" font-size="44.0" fill="#00E774" transform="matrix(1.00, 0.00, -0.00, -1.00, 182.8, 398.0)">C</text><text xml:space="preserve" font-family="TrebuchetMS" font-size="44.0" fill="#00E774" transform="matrix(1.00, 0.00, -0.00, -1.00, 209.1, 398.0)">E</text><text xml:space="preserve" font-family="TrebuchetMS" font-size="44.0" fill="#00E774" transform="matrix(1.00, 0.00, -0.00, -1.00, 232.7, 398.0)">S</text><text xml:space="preserve" font-family="TrebuchetMS" font-size="44.0" fill="#00E774" transform="matrix(1.00, 0.00, -0.00, -1.00, 253.8, 398.0)"> </text><text xml:space="preserve" font-family="TrebuchetMS" font-size="44.0" fill="#00E774" transform="matrix(1.00, 0.00, -0.00, -1.00, 267.1, 398.0)">a</text><text xml:space="preserve" font-family="TrebuchetMS" font-size="44.0" fill="#00E774" transform="matrix(1.00, 0.00, -0.00, -1.00, 290.2, 398.0)">n</text><text xml:space="preserve" font-family="TrebuchetMS" font-size="44.0" fill="#00E774" transform="matrix(1.00, 0.00, -0.00, -1.00, 314.3, 398.0)">d</text><text xml:space="preserve" font-family="TrebuchetMS" font-size="44.0" fill="#00E774" transform="matrix(1.00, 0.00, -0.00, -1.00, 338.8, 398.0)"> </text><text xml:space="preserve" font-family="TrebuchetMS" font-size="44.0" fill="#00E774" transform="matrix(1.00, 0.00, -0.00, -1.00, 352.1, 398.0)">N</text><text xml:space="preserve" font-family="TrebuchetMS" font-size="44.0" fill="#00E774" transform="matrix(1.00, 0.00, -0.00, -1.00, 380.2, 398.0)">A</text><text xml:space="preserve" font-family="TrebuchetMS" font-size="44.0" fill="#00E774" transform="matrix(1.00, 0.00, -0.00, -1.00, 406.1, 398.0)">M</text><text xml:space="preserve" font-family="TrebuchetMS" font-size="44.0" fill="#00E774" transform="matrix(1.00, 0.00, -0.00, -1.00, 437.4, 398.0)">E</text><text xml:space="preserve" font-family="TrebuchetMS" font-size="44.0" fill="#00E774" transform="matrix(1.00, 0.00, -0.00, -1.00, 460.9, 398.0)">S</text><text xml:space="preserve" font-family="TrebuchetMS" font-size="44.0" fill="#00E774" transform="matrix(1.00, 0.00, -0.00, -1.00, 482.1, 398.0)">”</text><text xml:space="preserve" font-family="TrebuchetMS" font-size="44.0" fill="#00E774" transform="matrix(1.00, 0.00, -0.00, -1.00, 505.2, 398.0)"> </text><text xml:space="preserve" font-family="TrebuchetMS" font-size="44.0" fill="#00E774" transform="matrix(1.00, 0.00, -0.00, -1.00, 518.4, 398.0)">e</text><text xml:space="preserve" font-family="TrebuchetMS" font-size="44.0" fill="#00E774" transform="matrix(1.00, 0.00, -0.00, -1.00, 542.4, 398.0)">x</text><text xml:space="preserve" font-family="TrebuchetMS" font-size="44.0" fill="#00E774" transform="matrix(1.00, 0.00, -0.00, -1.00, 564.5, 398.0)">e</text><text xml:space="preserve" font-family="TrebuchetMS" font-size="44.0" fill="#00E774" transform="matrix(1.00, 0.00, -0.00, -1.00, 588.5, 398.0)">r</text><text xml:space="preserve" font-family="TrebuchetMS" font-size="44.0" fill="#00E774" transform="matrix(1.00, 0.00, -0.00, -1.00, 605.6, 398.0)">c</text><text xml:space="preserve" font-family="TrebuchetMS" font-size="44.0" fill="#00E774" transform="matrix(1.00, 0.00, -0.00, -1.00, 627.4, 398.0)">i</text><text xml:space="preserve" font-family="TrebuchetMS" font-size="44.0" fill="#00E774" transform="matrix(1.00, 0.00, -0.00, -1.00, 639.9, 398.0)">s</text><text xml:space="preserve" font-family="TrebuchetMS" font-size="44.0" fill="#00E774" transform="matrix(1.00, 0.00, -0.00, -1.00, 657.7, 398.0)">e</text><text xml:space="preserve" font-family="TrebuchetMS" font-size="44.0" fill="#00E774" transform="matrix(1.00, 0.00, -0.00, -1.00, 681.7, 398.0)"> </text><text xml:space="preserve" font-family="TrebuchetMS" font-size="44.0" fill="#00E774" transform="matrix(1.00, 0.00, -0.00, -1.00, 695.0, 398.0)"> </text><text xml:space="preserve" font-family="TrebuchetMS" font-size="44.0" fill="#00E774" transform="matrix(1.00, 0.00, -0.00, -1.00, 708.3, 398.0)"> </text><g><clipPath id="clip-91"><path d="M 76.7 226.3 L 76.7 226.3 C 76.7 296.8 133.6 353.9 203.7 353.9 L 203.7 353.9 C 273.8 353.9 330.6 296.8 330.6 226.3 L 330.6 226.3 C 330.6 155.8 273.8 98.6 203.7 98.6 L 203.7 98.6 C 133.6 98.6 76.7 155.8 76.7 226.3 Z M 76.7 226.3 "></path></clipPath><g clip-path="url(#clip-91)"><image xlink:href="0120C1DBDCE932FA372E5E145F580E39.jpeg" width="476.00" height="740.00" transform="matrix(1.00, 0.00, -0.00, -1.00, -39.0, 588.0)"></image></g></g><text xml:space="preserve" font-family="TrebuchetMS" font-size="14.0" fill="#000000" transform="matrix(1.00, 0.00, -0.00, -1.00, 409.0, 334.0)">d</text><text xml:space="preserve" font-family="TrebuchetMS" font-size="14.0" fill="#000000" transform="matrix(1.00, 0.00, -0.00, -1.00, 416.8, 334.0)">i</text><text xml:space="preserve" font-family="TrebuchetMS" font-size="14.0" fill="#000000" transform="matrix(1.00, 0.00, -0.00, -1.00, 420.8, 334.0)">s</text><text xml:space="preserve" font-family="TrebuchetMS" font-size="14.0" fill="#000000" transform="matrix(1.00, 0.00, -0.00, -1.00, 426.5, 334.0)">c</text><text xml:space="preserve" font-family="TrebuchetMS" font-size="14.0" fill="#000000" transform="matrix(1.00, 0.00, -0.00, -1.00, 433.4, 334.0)">l</text><text xml:space="preserve" font-family="TrebuchetMS" font-size="14.0" fill="#000000" transform="matrix(1.00, 0.00, -0.00, -1.00, 437.5, 334.0)">a</text><text xml:space="preserve" font-family="TrebuchetMS" font-size="14.0" fill="#000000" transform="matrix(1.00, 0.00, -0.00, -1.00, 444.9, 334.0)">i</text><text xml:space="preserve" font-family="TrebuchetMS" font-size="14.0" fill="#000000" transform="matrix(1.00, 0.00, -0.00, -1.00, 448.9, 334.0)">m</text><text xml:space="preserve" font-family="TrebuchetMS" font-size="14.0" fill="#000000" transform="matrix(1.00, 0.00, -0.00, -1.00, 460.5, 334.0)">e</text><text xml:space="preserve" font-family="TrebuchetMS" font-size="14.0" fill="#000000" transform="matrix(1.00, 0.00, -0.00, -1.00, 468.1, 334.0)">r</text><text xml:space="preserve" font-family="TrebuchetMS" font-size="14.0" fill="#000000" transform="matrix(1.00, 0.00, -0.00, -1.00, 473.6, 334.0)"> </text><text xml:space="preserve" font-family="TrebuchetMS" font-size="18.0" fill="#000000" transform="matrix(1.00, 0.00, -0.00, -1.00, 431.0, 292.0)">a</text><text xml:space="preserve" font-family="TrebuchetMS" font-size="18.0" fill="#000000" transform="matrix(1.00, 0.00, -0.00, -1.00, 440.5, 292.0)">l</text><text xml:space="preserve" font-family="TrebuchetMS" font-size="18.0" fill="#000000" transform="matrix(1.00, 0.00, -0.00, -1.00, 445.8, 292.0)">l</text><text xml:space="preserve" font-family="TrebuchetMS" font-size="18.0" fill="#000000" transform="matrix(1.00, 0.00, -0.00, -1.00, 451.1, 292.0)"> </text><text xml:space="preserve" font-family="TrebuchetMS" font-size="18.0" fill="#000000" transform="matrix(1.00, 0.00, -0.00, -1.00, 456.5, 292.0)"> </text><text xml:space="preserve" font-family="TrebuchetMS" font-size="20.0" fill="#000000" transform="matrix(1.00, 0.00, -0.00, -1.00, 415.0, 270.0)">F</text><text xml:space="preserve" font-family="TrebuchetMS" font-size="20.0" fill="#000000" transform="matrix(1.00, 0.00, -0.00, -1.00, 423.4, 270.0)">A</text><text xml:space="preserve" font-family="TrebuchetMS" font-size="20.0" fill="#000000" transform="matrix(1.00, 0.00, -0.00, -1.00, 435.2, 270.0)">C</text><text xml:space="preserve" font-family="TrebuchetMS" font-size="20.0" fill="#000000" transform="matrix(1.00, 0.00, -0.00, -1.00, 447.1, 270.0)">E</text><text xml:space="preserve" font-family="TrebuchetMS" font-size="20.0" fill="#000000" transform="matrix(1.00, 0.00, -0.00, -1.00, 457.8, 270.0)">S</text><text xml:space="preserve" font-family="TrebuchetMS" font-size="20.0" fill="#000000" transform="matrix(1.00, 0.00, -0.00, -1.00, 467.5, 270.0)"> </text><text xml:space="preserve" font-family="TrebuchetMS" font-size="20.0" fill="#000000" transform="matrix(1.00, 0.00, -0.00, -1.00, 473.5, 270.0)"> </text><text xml:space="preserve" font-family="TrebuchetMS" font-size="20.0" fill="#000000" transform="matrix(1.00, 0.00, -0.00, -1.00, 408.0, 247.0)">I</text><text xml:space="preserve" font-family="TrebuchetMS" font-size="20.0" fill="#000000" transform="matrix(1.00, 0.00, -0.00, -1.00, 413.6, 247.0)">M</text><text xml:space="preserve" font-family="TrebuchetMS" font-size="20.0" fill="#000000" transform="matrix(1.00, 0.00, -0.00, -1.00, 427.8, 247.0)">A</text><text xml:space="preserve" font-family="TrebuchetMS" font-size="20.0" fill="#000000" transform="matrix(1.00, 0.00, -0.00, -1.00, 439.6, 247.0)">G</text><text xml:space="preserve" font-family="TrebuchetMS" font-size="20.0" fill="#000000" transform="matrix(1.00, 0.00, -0.00, -1.00, 453.1, 247.0)">E</text><text xml:space="preserve" font-family="TrebuchetMS" font-size="20.0" fill="#000000" transform="matrix(1.00, 0.00, -0.00, -1.00, 463.8, 247.0)">S</text><text xml:space="preserve" font-family="TrebuchetMS" font-size="20.0" fill="#000000" transform="matrix(1.00, 0.00, -0.00, -1.00, 473.4, 247.0)"> </text><text xml:space="preserve" font-family="TrebuchetMS" font-size="20.0" fill="#000000" transform="matrix(1.00, 0.00, -0.00, -1.00, 395.0, 224.0)">D</text><text xml:space="preserve" font-family="TrebuchetMS" font-size="20.0" fill="#000000" transform="matrix(1.00, 0.00, -0.00, -1.00, 407.3, 224.0)">R</text><text xml:space="preserve" font-family="TrebuchetMS" font-size="20.0" fill="#000000" transform="matrix(1.00, 0.00, -0.00, -1.00, 418.9, 224.0)">A</text><text xml:space="preserve" font-family="TrebuchetMS" font-size="20.0" fill="#000000" transform="matrix(1.00, 0.00, -0.00, -1.00, 428.9, 224.0)">W</text><text xml:space="preserve" font-family="TrebuchetMS" font-size="20.0" fill="#000000" transform="matrix(1.00, 0.00, -0.00, -1.00, 446.0, 224.0)">I</text><text xml:space="preserve" font-family="TrebuchetMS" font-size="20.0" fill="#000000" transform="matrix(1.00, 0.00, -0.00, -1.00, 451.6, 224.0)">N</text><text xml:space="preserve" font-family="TrebuchetMS" font-size="20.0" fill="#000000" transform="matrix(1.00, 0.00, -0.00, -1.00, 464.3, 224.0)">G</text><text xml:space="preserve" font-family="TrebuchetMS" font-size="20.0" fill="#000000" transform="matrix(1.00, 0.00, -0.00, -1.00, 477.9, 224.0)">S</text><text xml:space="preserve" font-family="TrebuchetMS" font-size="20.0" fill="#000000" transform="matrix(1.00, 0.00, -0.00, -1.00, 487.5, 224.0)"> </text><text xml:space="preserve" font-family="TrebuchetMS" font-size="20.0" fill="#000000" transform="matrix(1.00, 0.00, -0.00, -1.00, 411.0, 201.0)">L</text><text xml:space="preserve" font-family="TrebuchetMS" font-size="20.0" fill="#000000" transform="matrix(1.00, 0.00, -0.00, -1.00, 421.1, 201.0)">O</text><text xml:space="preserve" font-family="TrebuchetMS" font-size="20.0" fill="#000000" transform="matrix(1.00, 0.00, -0.00, -1.00, 434.6, 201.0)">G</text><text xml:space="preserve" font-family="TrebuchetMS" font-size="20.0" fill="#000000" transform="matrix(1.00, 0.00, -0.00, -1.00, 448.1, 201.0)">O</text><text xml:space="preserve" font-family="TrebuchetMS" font-size="20.0" fill="#000000" transform="matrix(1.00, 0.00, -0.00, -1.00, 461.6, 201.0)">S</text><text xml:space="preserve" font-family="TrebuchetMS" font-size="20.0" fill="#000000" transform="matrix(1.00, 0.00, -0.00, -1.00, 471.2, 201.0)"> </text><text xml:space="preserve" font-family="TrebuchetMS" font-size="20.0" fill="#000000" transform="matrix(1.00, 0.00, -0.00, -1.00, 477.3, 201.0)"> </text><text xml:space="preserve" font-family="TrebuchetMS" font-size="18.0" fill="#000000" transform="matrix(1.00, 0.00, -0.00, -1.00, 382.0, 179.0)">a</text><text xml:space="preserve" font-family="TrebuchetMS" font-size="18.0" fill="#000000" transform="matrix(1.00, 0.00, -0.00, -1.00, 391.5, 179.0)">r</text><text xml:space="preserve" font-family="TrebuchetMS" font-size="18.0" fill="#000000" transform="matrix(1.00, 0.00, -0.00, -1.00, 398.4, 179.0)">e</text><text xml:space="preserve" font-family="TrebuchetMS" font-size="18.0" fill="#000000" transform="matrix(1.00, 0.00, -0.00, -1.00, 408.3, 179.0)"> </text><text xml:space="preserve" font-family="TrebuchetMS" font-size="18.0" fill="#000000" transform="matrix(1.00, 0.00, -0.00, -1.00, 413.7, 179.0)">c</text><text xml:space="preserve" font-family="TrebuchetMS" font-size="18.0" fill="#000000" transform="matrix(1.00, 0.00, -0.00, -1.00, 422.6, 179.0)">r</text><text xml:space="preserve" font-family="TrebuchetMS" font-size="18.0" fill="#000000" transform="matrix(1.00, 0.00, -0.00, -1.00, 429.6, 179.0)">e</text><text xml:space="preserve" font-family="TrebuchetMS" font-size="18.0" fill="#000000" transform="matrix(1.00, 0.00, -0.00, -1.00, 439.4, 179.0)">a</text><text xml:space="preserve" font-family="TrebuchetMS" font-size="18.0" fill="#000000" transform="matrix(1.00, 0.00, -0.00, -1.00, 448.9, 179.0)">t</text><text xml:space="preserve" font-family="TrebuchetMS" font-size="18.0" fill="#000000" transform="matrix(1.00, 0.00, -0.00, -1.00, 456.0, 179.0)">e</text><text xml:space="preserve" font-family="TrebuchetMS" font-size="18.0" fill="#000000" transform="matrix(1.00, 0.00, -0.00, -1.00, 465.9, 179.0)">d</text><text xml:space="preserve" font-family="TrebuchetMS" font-size="18.0" fill="#000000" transform="matrix(1.00, 0.00, -0.00, -1.00, 475.9, 179.0)"> </text><text xml:space="preserve" font-family="TrebuchetMS" font-size="18.0" fill="#000000" transform="matrix(1.00, 0.00, -0.00, -1.00, 481.3, 179.0)">b</text><text xml:space="preserve" font-family="TrebuchetMS" font-size="18.0" fill="#000000" transform="matrix(1.00, 0.00, -0.00, -1.00, 491.4, 179.0)">y</text><text xml:space="preserve" font-family="TrebuchetMS" font-size="18.0" fill="#000000" transform="matrix(1.00, 0.00, -0.00, -1.00, 500.3, 179.0)"> </text><text xml:space="preserve" font-family="TrebuchetMS" font-size="18.0" fill="#000000" transform="matrix(1.00, 0.00, -0.00, -1.00, 505.7, 179.0)"> </text><text xml:space="preserve" font-family="TrebuchetMS" font-size="32.0" fill="#000000" transform="matrix(1.00, 0.00, -0.00, -1.00, 380.0, 146.0)">T</text><text xml:space="preserve" font-family="TrebuchetMS" font-size="32.0" fill="#000000" transform="matrix(1.00, 0.00, -0.00, -1.00, 395.5, 146.0)">A</text><text xml:space="preserve" font-family="TrebuchetMS" font-size="32.0" fill="#000000" transform="matrix(1.00, 0.00, -0.00, -1.00, 411.2, 146.0)">T</text><text xml:space="preserve" font-family="TrebuchetMS" font-size="32.0" fill="#000000" transform="matrix(1.00, 0.00, -0.00, -1.00, 429.8, 146.0)">J</text><text xml:space="preserve" font-family="TrebuchetMS" font-size="32.0" fill="#000000" transform="matrix(1.00, 0.00, -0.00, -1.00, 445.0, 146.0)">A</text><text xml:space="preserve" font-family="TrebuchetMS" font-size="32.0" fill="#000000" transform="matrix(1.00, 0.00, -0.00, -1.00, 463.9, 146.0)">N</text><text xml:space="preserve" font-family="TrebuchetMS" font-size="32.0" fill="#000000" transform="matrix(1.00, 0.00, -0.00, -1.00, 484.3, 146.0)">A</text><text xml:space="preserve" font-family="TrebuchetMS" font-size="11.0" fill="#7F7F7F" transform="matrix(1.00, 0.00, -0.00, -1.00, 64.0, 28.0)">©</text><text xml:space="preserve" font-family="TrebuchetMS" font-size="11.0" fill="#7F7F7F" transform="matrix(1.00, 0.00, -0.00, -1.00, 71.8, 28.0)"> </text><text xml:space="preserve" font-family="TrebuchetMS" font-size="11.0" fill="#7F7F7F" transform="matrix(1.00, 0.00, -0.00, -1.00, 75.2, 28.0)">2</text><text xml:space="preserve" font-family="TrebuchetMS" font-size="11.0" fill="#7F7F7F" transform="matrix(1.00, 0.00, -0.00, -1.00, 80.9, 28.0)">0</text><text xml:space="preserve" font-family="TrebuchetMS" font-size="11.0" fill="#7F7F7F" transform="matrix(1.00, 0.00, -0.00, -1.00, 86.7, 28.0)">1</text><text xml:space="preserve" font-family="TrebuchetMS" font-size="11.0" fill="#7F7F7F" transform="matrix(1.00, 0.00, -0.00, -1.00, 92.5, 28.0)">8</text><text xml:space="preserve" font-family="TrebuchetMS" font-size="11.0" fill="#7F7F7F" transform="matrix(1.00, 0.00, -0.00, -1.00, 98.2, 28.0)"> </text><text xml:space="preserve" font-family="TrebuchetMS" font-size="11.0" fill="#7F7F7F" transform="matrix(1.00, 0.00, -0.00, -1.00, 101.6, 28.0)">a</text><text xml:space="preserve" font-family="TrebuchetMS" font-size="11.0" fill="#7F7F7F" transform="matrix(1.00, 0.00, -0.00, -1.00, 107.3, 28.0)">l</text><text xml:space="preserve" font-family="TrebuchetMS" font-size="11.0" fill="#7F7F7F" transform="matrix(1.00, 0.00, -0.00, -1.00, 110.6, 28.0)">l</text><text xml:space="preserve" font-family="TrebuchetMS" font-size="11.0" fill="#7F7F7F" transform="matrix(1.00, 0.00, -0.00, -1.00, 113.8, 28.0)"> </text><text xml:space="preserve" font-family="TrebuchetMS" font-size="11.0" fill="#7F7F7F" transform="matrix(1.00, 0.00, -0.00, -1.00, 117.2, 28.0)">r</text><text xml:space="preserve" font-family="TrebuchetMS" font-size="11.0" fill="#7F7F7F" transform="matrix(1.00, 0.00, -0.00, -1.00, 121.4, 28.0)">i</text><text xml:space="preserve" font-family="TrebuchetMS" font-size="11.0" fill="#7F7F7F" transform="matrix(1.00, 0.00, -0.00, -1.00, 124.6, 28.0)">g</text><text xml:space="preserve" font-family="TrebuchetMS" font-size="11.0" fill="#7F7F7F" transform="matrix(1.00, 0.00, -0.00, -1.00, 130.1, 28.0)">h</text><text xml:space="preserve" font-family="TrebuchetMS" font-size="11.0" fill="#7F7F7F" transform="matrix(1.00, 0.00, -0.00, -1.00, 136.1, 28.0)">t</text><text xml:space="preserve" font-family="TrebuchetMS" font-size="11.0" fill="#7F7F7F" transform="matrix(1.00, 0.00, -0.00, -1.00, 140.5, 28.0)">s</text><text xml:space="preserve" font-family="TrebuchetMS" font-size="11.0" fill="#7F7F7F" transform="matrix(1.00, 0.00, -0.00, -1.00, 144.9, 28.0)"> </text><text xml:space="preserve" font-family="TrebuchetMS" font-size="11.0" fill="#7F7F7F" transform="matrix(1.00, 0.00, -0.00, -1.00, 148.2, 28.0)">r</text><text xml:space="preserve" font-family="TrebuchetMS" font-size="11.0" fill="#7F7F7F" transform="matrix(1.00, 0.00, -0.00, -1.00, 152.5, 28.0)">e</text><text xml:space="preserve" font-family="TrebuchetMS" font-size="11.0" fill="#7F7F7F" transform="matrix(1.00, 0.00, -0.00, -1.00, 158.5, 28.0)">s</text><text xml:space="preserve" font-family="TrebuchetMS" font-size="11.0" fill="#7F7F7F" transform="matrix(1.00, 0.00, -0.00, -1.00, 163.0, 28.0)">e</text><text xml:space="preserve" font-family="TrebuchetMS" font-size="11.0" fill="#7F7F7F" transform="matrix(1.00, 0.00, -0.00, -1.00, 169.0, 28.0)">r</text><text xml:space="preserve" font-family="TrebuchetMS" font-size="11.0" fill="#7F7F7F" transform="matrix(1.00, 0.00, -0.00, -1.00, 173.2, 28.0)">v</text><text xml:space="preserve" font-family="TrebuchetMS" font-size="11.0" fill="#7F7F7F" transform="matrix(1.00, 0.00, -0.00, -1.00, 178.6, 28.0)">e</text><text xml:space="preserve" font-family="TrebuchetMS" font-size="11.0" fill="#7F7F7F" transform="matrix(1.00, 0.00, -0.00, -1.00, 184.6, 28.0)">d</text><path d="M 386.6 112.3 L 495.1 112.3 L 495.1 70.8 L 386.6 70.8 Z M 386.6 112.3 " fill="#D8D8D8"></path><g><clipPath id="clip-92"><path d="M 376.2 78.9 L 486.8 78.9 L 486.8 120.3 L 376.2 120.3 Z M 376.2 78.9 "></path></clipPath><g clip-path="url(#clip-92)"><path d="M 485.8 119.3 L 377.2 119.3 L 377.2 79.9 L 485.8 79.9 Z M 485.8 119.3 " fill="#00E774"></path></g></g><g><clipPath id="clip-93"><path d="M 226.7 77.8 L 538.8 77.8 L 538.8 119.3 L 226.7 119.3 Z M 226.7 77.8 "></path></clipPath><g clip-path="url(#clip-93)"><text xml:space="preserve" font-family="TrebuchetMS" font-size="18.0" fill="#000000" transform="matrix(1.00, 0.00, -0.00, -1.00, 308.0, 93.0)"> </text><text xml:space="preserve" font-family="TrebuchetMS" font-size="18.0" fill="#000000" transform="matrix(1.00, 0.00, -0.00, -1.00, 313.4, 93.0)"> </text><text xml:space="preserve" font-family="TrebuchetMS" font-size="18.0" fill="#000000" transform="matrix(1.00, 0.00, -0.00, -1.00, 318.9, 93.0)"> </text><text xml:space="preserve" font-family="TrebuchetMS" font-size="18.0" fill="#000000" transform="matrix(1.00, 0.00, -0.00, -1.00, 324.3, 93.0)"> </text><text xml:space="preserve" font-family="TrebuchetMS" font-size="18.0" fill="#000000" transform="matrix(1.00, 0.00, -0.00, -1.00, 329.7, 93.0)"> </text><text xml:space="preserve" font-family="TrebuchetMS" font-size="18.0" fill="#000000" transform="matrix(1.00, 0.00, -0.00, -1.00, 335.1, 93.0)"> </text><text xml:space="preserve" font-family="TrebuchetMS" font-size="18.0" fill="#000000" transform="matrix(1.00, 0.00, -0.00, -1.00, 340.6, 93.0)"> </text><text xml:space="preserve" font-family="TrebuchetMS" font-size="18.0" fill="#000000" transform="matrix(1.00, 0.00, -0.00, -1.00, 346.0, 93.0)"> </text><text xml:space="preserve" font-family="TrebuchetMS" font-size="18.0" fill="#000000" transform="matrix(1.00, 0.00, -0.00, -1.00, 351.4, 93.0)"> </text><text xml:space="preserve" font-family="TrebuchetMS" font-size="18.0" fill="#000000" transform="matrix(1.00, 0.00, -0.00, -1.00, 356.9, 93.0)"> </text><text xml:space="preserve" font-family="TrebuchetMS" font-size="18.0" fill="#000000" transform="matrix(1.00, 0.00, -0.00, -1.00, 362.3, 93.0)"> </text><text xml:space="preserve" font-family="TrebuchetMS" font-size="18.0" fill="#000000" transform="matrix(1.00, 0.00, -0.00, -1.00, 367.7, 93.0)"> </text><text xml:space="preserve" font-family="TrebuchetMS" font-size="18.0" fill="#000000" transform="matrix(1.00, 0.00, -0.00, -1.00, 373.1, 93.0)"> </text><text xml:space="preserve" font-family="TrebuchetMS" font-size="18.0" fill="#000000" transform="matrix(1.00, 0.00, -0.00, -1.00, 378.6, 93.0)"> </text><text xml:space="preserve" font-family="TrebuchetMS" font-size="18.0" fill="#000000" transform="matrix(1.00, 0.00, -0.00, -1.00, 384.0, 93.0)"> </text><text xml:space="preserve" font-family="TrebuchetMS" font-size="18.0" fill="#000000" transform="matrix(1.00, 0.00, -0.00, -1.00, 389.4, 93.0)"> </text><text xml:space="preserve" font-family="TrebuchetMS" font-size="18.0" fill="#000000" transform="matrix(1.00, 0.00, -0.00, -1.00, 394.9, 93.0)"> </text><text xml:space="preserve" font-family="TrebuchetMS" font-size="18.0" fill="#000000" transform="matrix(1.00, 0.00, -0.00, -1.00, 400.3, 93.0)"> </text><text xml:space="preserve" font-family="TrebuchetMS" font-size="18.0" fill="#000000" transform="matrix(1.00, 0.00, -0.00, -1.00, 405.7, 93.0)">E</text><text xml:space="preserve" font-family="TrebuchetMS" font-size="18.0" fill="#000000" transform="matrix(1.00, 0.00, -0.00, -1.00, 415.3, 93.0)">N</text><text xml:space="preserve" font-family="TrebuchetMS" font-size="18.0" fill="#000000" transform="matrix(1.00, 0.00, -0.00, -1.00, 426.8, 93.0)">T</text><text xml:space="preserve" font-family="TrebuchetMS" font-size="18.0" fill="#000000" transform="matrix(1.00, 0.00, -0.00, -1.00, 437.3, 93.0)">E</text><text xml:space="preserve" font-family="TrebuchetMS" font-size="18.0" fill="#000000" transform="matrix(1.00, 0.00, -0.00, -1.00, 446.9, 93.0)">R</text></g></g></g></svg>